
<svg
  width="120.278"
  height="12.5"
  xmlns="http://www.w3.org/2000/svg"
>
  <g fill="#141414" fillRule="nonzero">
    <path d="M4.667 12.5c2.554 0 4.35-1.429 4.35-3.688 0-2.147-1.796-2.89-3.743-3.52C3.853 4.813 2.71 4.35 2.71 3.44c0-.758.67-1.293 1.828-1.293.703 0 1.5.296 2.044.806.255.168.47.232.694-.032l.838-.957c.152-.184.144-.407-.024-.591C7.39.55 6.016 0 4.643 0 2.105 0 .5 1.365.5 3.416c0 1.964 1.341 2.842 3.632 3.592 1.637.559 2.554.974 2.554 1.836 0 .934-.742 1.5-2.107 1.5-1.014 0-2.147-.59-2.857-1.356-.192-.176-.392-.208-.535-.072L.149 9.954c-.175.167-.191.367-.072.519.878 1.197 2.754 2.027 4.59 2.027ZM16.533.447c0-.176-.096-.28-.263-.28h-1.724c-.16 0-.264.104-.264.28V7.32c0 3.049 2.076 5.18 5.109 5.18 3.01 0 5.108-2.107 5.108-5.148V.447c0-.184-.111-.28-.295-.28h-1.668c-.176 0-.288.104-.288.28v6.897c0 1.7-1.205 2.953-2.857 2.953-1.668 0-2.858-1.253-2.858-2.953V.447ZM39.974 6.138h-3.952c-.16 0-.255.104-.255.272v1.349c0 .175.096.263.255.263h2.068v1.724c-.48.343-1.39.607-2.012.607-2.386 0-4.095-1.828-4.095-4.103 0-2.251 1.804-4.015 4.095-4.015.75 0 1.716.247 2.435.87.16.136.367.12.487-.048l.878-1.333a.365.365 0 0 0-.08-.487C38.808.407 37.292 0 36.07 0c-3.552 0-6.346 2.73-6.346 6.25 0 3.528 2.802 6.25 6.354 6.25 1.365 0 3.033-.503 3.967-1.141a.53.53 0 0 0 .192-.392V6.41c0-.168-.104-.272-.263-.272ZM56.302 11.917 51.122.343c-.088-.191-.248-.32-.44-.32h-.103c-.176 0-.352.12-.44.312L44.976 11.91c-.112.248.008.407.272.407h1.708c.2 0 .343-.143.415-.31l.487-1.174h5.571l.487 1.181c.072.176.224.311.407.311h1.716c.264 0 .368-.175.264-.407ZM48.647 8.9l1.995-4.83L52.63 8.9h-3.983ZM69.046 8.724c1.27-.814 2.051-2.187 2.051-3.839 0-2.73-2.059-4.701-4.9-4.701H61.79c-.207 0-.359.143-.359.343v11.438c0 .216.152.351.36.351h1.532c.215 0 .367-.135.367-.35v-2.46h2.506c.288 0 .56-.015.83-.055l1.254 2.57c.088.168.255.295.407.295h1.756c.255 0 .351-.183.231-.415l-1.628-3.177Zm-2.993-1.101H63.69V2.155h2.363c1.596 0 2.793 1.142 2.793 2.714 0 1.62-1.165 2.754-2.793 2.754ZM84.544 10.329h-5.476V.439c0-.176-.103-.271-.263-.271H77.08c-.168 0-.272.095-.272.271v11.598c0 .176.104.271.272.271h7.463c.168 0 .263-.095.263-.271V10.6c0-.167-.095-.271-.263-.271ZM92.084.439c0-.176-.096-.271-.271-.271h-1.717c-.167 0-.263.095-.263.271v11.614c0 .168.096.263.263.263h1.717c.175 0 .271-.095.271-.263V.439ZM106.536.184h-7.934c-.231 0-.359.12-.359.35v11.423c0 .224.128.351.36.351h1.556c.215 0 .343-.127.343-.35V8.412h4.83c.263 0 .422-.144.422-.367V6.721c0-.24-.16-.383-.423-.383h-4.83V2.323h6.035c.232 0 .368-.128.368-.36V.536c0-.224-.136-.351-.368-.351ZM111.275 1.796c0 .231.135.36.35.36h3.018v9.81c0 .223.128.35.351.35h1.54c.232 0 .36-.127.36-.35v-9.81h3.041c.216 0 .343-.137.343-.36V.535c0-.216-.127-.351-.343-.351h-8.31c-.223 0-.35.127-.35.35v1.262Z" />
  </g>
</svg>